<svg width="138" height="28" viewBox="0 0 138 28" fill="none" xmlns="http://www.w3.org/2000/svg">
<path d="M43.6813 14.0236C43.6813 15.3302 43.4366 16.4493 42.9471 17.3809C42.4616 18.3085 41.7984 19.019 40.9577 19.5124C40.1208 20.0059 39.1715 20.2526 38.1096 20.2526C37.0478 20.2526 36.0965 20.0059 35.2557 19.5124C34.4189 19.0151 33.7557 18.3026 33.2662 17.3749C32.7807 16.4434 32.538 15.3263 32.538 14.0236C32.538 12.7171 32.7807 11.6 33.2662 10.6723C33.7557 9.74077 34.4189 9.02827 35.2557 8.53485C36.0965 8.04143 37.0478 7.79472 38.1096 7.79472C39.1715 7.79472 40.1208 8.04143 40.9577 8.53485C41.7984 9.02827 42.4616 9.74077 42.9471 10.6723C43.4366 11.6 43.6813 12.7171 43.6813 14.0236ZM41.4728 14.0236C41.4728 13.1039 41.3287 12.3283 41.0406 11.6967C40.7563 11.0612 40.3616 10.5816 39.8563 10.2579C39.3511 9.93024 38.7689 9.76643 38.1096 9.76643C37.4504 9.76643 36.8682 9.93024 36.3629 10.2579C35.8577 10.5816 35.461 11.0612 35.1728 11.6967C34.8886 12.3283 34.7465 13.1039 34.7465 14.0236C34.7465 14.9434 34.8886 15.721 35.1728 16.3565C35.461 16.9881 35.8577 17.4677 36.3629 17.7953C36.8682 18.119 37.4504 18.2809 38.1096 18.2809C38.7689 18.2809 39.3511 18.119 39.8563 17.7953C40.3616 17.4677 40.7563 16.9881 41.0406 16.3565C41.3287 15.721 41.4728 14.9434 41.4728 14.0236Z" fill="#006C35"/>
<path d="M45.1632 20.0868V10.9921H47.2415V12.5079H47.3362C47.502 11.9829 47.7862 11.5783 48.1888 11.2941C48.5954 11.0059 49.0592 10.8618 49.5803 10.8618C49.6987 10.8618 49.8309 10.8677 49.977 10.8796C50.127 10.8875 50.2513 10.9013 50.35 10.921V12.8927C50.2592 12.8611 50.1151 12.8335 49.9178 12.8098C49.7243 12.7822 49.5368 12.7684 49.3553 12.7684C48.9645 12.7684 48.6132 12.8533 48.3013 13.023C47.9934 13.1888 47.7507 13.4197 47.573 13.7157C47.3954 14.0118 47.3066 14.3532 47.3066 14.7401V20.0868H45.1632Z" fill="#006C35"/>
<path d="M54.8545 23.6868C54.0848 23.6868 53.4236 23.5822 52.871 23.3729C52.3184 23.1677 51.8743 22.8914 51.5388 22.544C51.2032 22.1966 50.9703 21.8118 50.8401 21.3894L52.7703 20.9216C52.8572 21.0993 52.9835 21.2749 53.1493 21.4486C53.3151 21.6262 53.5381 21.7723 53.8184 21.8868C54.1026 22.0052 54.4598 22.0644 54.8901 22.0644C55.498 22.0644 56.0012 21.9164 56.3999 21.6203C56.7986 21.3282 56.9979 20.8466 56.9979 20.1756V18.4526H56.8914C56.7808 18.6736 56.619 18.9006 56.4058 19.1335C56.1966 19.3664 55.9183 19.5618 55.571 19.7197C55.2276 19.8776 54.7953 19.9565 54.2743 19.9565C53.5756 19.9565 52.942 19.7927 52.3736 19.4651C51.8092 19.1335 51.3592 18.6401 51.0236 17.9848C50.6921 17.3256 50.5263 16.5006 50.5263 15.5098C50.5263 14.5111 50.6921 13.6684 51.0236 12.9815C51.3592 12.2908 51.8111 11.7677 52.3795 11.4125C52.948 11.0533 53.5815 10.8737 54.2802 10.8737C54.8131 10.8737 55.2512 10.9644 55.5947 11.146C55.942 11.3237 56.2183 11.5388 56.4236 11.7914C56.6289 12.0401 56.7848 12.275 56.8914 12.496H57.0098V10.9921H59.1236V20.2348C59.1236 21.0124 58.9381 21.6558 58.567 22.1651C58.196 22.6743 57.6887 23.0552 57.0453 23.3078C56.4019 23.5604 55.6716 23.6868 54.8545 23.6868ZM54.8723 18.2749C55.3262 18.2749 55.7131 18.1644 56.0328 17.9434C56.3526 17.7223 56.5953 17.4045 56.7611 16.9901C56.9269 16.5756 57.0098 16.0782 57.0098 15.498C57.0098 14.9256 56.9269 14.4243 56.7611 13.994C56.5993 13.5638 56.3585 13.2302 56.0387 12.9934C55.723 12.7526 55.3341 12.6322 54.8723 12.6322C54.3947 12.6322 53.996 12.7565 53.6763 13.0052C53.3565 13.2539 53.1157 13.5954 52.9539 14.0296C52.792 14.4598 52.7111 14.9493 52.7111 15.498C52.7111 16.0546 52.792 16.5421 52.9539 16.9605C53.1197 17.3749 53.3624 17.6986 53.6822 17.9315C54.0059 18.1605 54.4026 18.2749 54.8723 18.2749Z" fill="#006C35"/>
<path d="M63.4372 20.2703C62.8609 20.2703 62.3418 20.1677 61.8799 19.9624C61.4221 19.7532 61.0589 19.4453 60.7905 19.0388C60.526 18.6322 60.3938 18.1309 60.3938 17.5348C60.3938 17.0217 60.4885 16.5973 60.678 16.2618C60.8675 15.9263 61.126 15.6578 61.4536 15.4565C61.7813 15.2552 62.1503 15.1032 62.5609 15.0006C62.9753 14.894 63.4036 14.8171 63.8457 14.7697C64.3786 14.7144 64.8109 14.6651 65.1424 14.6217C65.474 14.5743 65.7148 14.5032 65.8648 14.4085C66.0187 14.3098 66.0957 14.1579 66.0957 13.9526V13.9171C66.0957 13.471 65.9635 13.1256 65.699 12.8809C65.4345 12.6361 65.0536 12.5138 64.5563 12.5138C64.0313 12.5138 63.6148 12.6283 63.3069 12.8572C63.003 13.0861 62.7977 13.3565 62.6911 13.6684L60.6898 13.3842C60.8477 12.8315 61.1082 12.3697 61.4714 11.9987C61.8346 11.6237 62.2786 11.3434 62.8036 11.1579C63.3286 10.9684 63.9089 10.8737 64.5444 10.8737C64.9826 10.8737 65.4187 10.925 65.853 11.0276C66.2872 11.1302 66.6839 11.3 67.0431 11.5368C67.4023 11.7697 67.6904 12.0875 67.9076 12.4901C68.1286 12.8927 68.2391 13.396 68.2391 14V20.0868H66.1786V18.8374H66.1076C65.9773 19.0901 65.7937 19.3269 65.5569 19.548C65.324 19.7651 65.0299 19.9407 64.6747 20.0749C64.3234 20.2052 63.9109 20.2703 63.4372 20.2703ZM63.9938 18.6953C64.424 18.6953 64.797 18.6105 65.1128 18.4407C65.4286 18.267 65.6714 18.0381 65.8411 17.7539C66.0148 17.4697 66.1016 17.1598 66.1016 16.8243V15.7526C66.0345 15.8078 65.9201 15.8592 65.7582 15.9065C65.6003 15.9539 65.4227 15.9953 65.2253 16.0309C65.028 16.0664 64.8326 16.098 64.6391 16.1256C64.4457 16.1532 64.278 16.1769 64.1359 16.1967C63.8161 16.2401 63.5299 16.3111 63.2773 16.4098C63.0247 16.5085 62.8253 16.6467 62.6793 16.8243C62.5332 16.998 62.4602 17.223 62.4602 17.4993C62.4602 17.894 62.6043 18.192 62.8924 18.3934C63.1806 18.5947 63.5477 18.6953 63.9938 18.6953Z" fill="#006C35"/>
<path d="M72.0376 14.7579V20.0868H69.8942V10.9921H71.9428V12.5375H72.0494C72.2586 12.0283 72.5922 11.6237 73.0501 11.3237C73.5119 11.0237 74.0823 10.8737 74.7613 10.8737C75.3889 10.8737 75.9356 11.0079 76.4014 11.2763C76.8711 11.5447 77.2343 11.9335 77.4908 12.4427C77.7514 12.9519 77.8797 13.5697 77.8757 14.296V20.0868H75.7323V14.6276C75.7323 14.0197 75.5744 13.544 75.2586 13.2006C74.9468 12.8572 74.5145 12.6855 73.9619 12.6855C73.5869 12.6855 73.2534 12.7684 72.9613 12.9342C72.6731 13.096 72.4461 13.3309 72.2803 13.6388C72.1185 13.9467 72.0376 14.3197 72.0376 14.7579Z" fill="#006C35"/>
<path d="M79.5544 20.0868V10.9921H81.6978V20.0868H79.5544ZM80.6321 9.7013C80.2926 9.7013 80.0005 9.5888 79.7558 9.3638C79.511 9.13485 79.3886 8.86051 79.3886 8.54077C79.3886 8.21709 79.511 7.94275 79.7558 7.71775C80.0005 7.48881 80.2926 7.37433 80.6321 7.37433C80.9755 7.37433 81.2676 7.48881 81.5084 7.71775C81.7531 7.94275 81.8755 8.21709 81.8755 8.54077C81.8755 8.86051 81.7531 9.13485 81.5084 9.3638C81.2676 9.5888 80.9755 9.7013 80.6321 9.7013Z" fill="#006C35"/>
<path d="M87.3688 20.2644C86.4609 20.2644 85.6813 20.0651 85.03 19.6664C84.3827 19.2677 83.8833 18.717 83.532 18.0144C83.1846 17.3078 83.011 16.4947 83.011 15.575C83.011 14.6513 83.1886 13.8361 83.5438 13.1296C83.8991 12.419 84.4004 11.8664 85.0478 11.4717C85.6991 11.073 86.4688 10.8737 87.357 10.8737C88.0951 10.8737 88.7484 11.0098 89.3168 11.2822C89.8892 11.5506 90.3451 11.9315 90.6846 12.425C91.0241 12.9144 91.2175 13.4868 91.2649 14.1421H89.2162C89.1333 13.7039 88.9359 13.3388 88.6241 13.0467C88.3162 12.7506 87.9037 12.6026 87.3866 12.6026C86.9484 12.6026 86.5636 12.721 86.232 12.9579C85.9004 13.1908 85.6419 13.5263 85.4563 13.9644C85.2748 14.4026 85.184 14.9276 85.184 15.5394C85.184 16.1592 85.2748 16.6921 85.4563 17.1381C85.6379 17.5802 85.8925 17.9217 86.2201 18.1624C86.5517 18.3993 86.9405 18.5177 87.3866 18.5177C87.7024 18.5177 87.9846 18.4585 88.2333 18.3401C88.4859 18.2177 88.6971 18.042 88.8668 17.8131C89.0366 17.5842 89.153 17.3059 89.2162 16.9782H91.2649C91.2135 17.6217 91.0241 18.192 90.6964 18.6894C90.3688 19.1828 89.9228 19.5697 89.3583 19.8499C88.7938 20.1262 88.1307 20.2644 87.3688 20.2644Z" fill="#006C35"/>
<path d="M96.255 7.96051H98.9432L102.543 16.7473H102.685L106.285 7.96051H108.973V20.0868H106.866V11.7559H106.753L103.402 20.0512H101.827L98.4754 11.7381H98.3629V20.0868H96.255V7.96051Z" fill="#006C35"/>
<path d="M113.388 20.2703C112.811 20.2703 112.292 20.1677 111.83 19.9624C111.373 19.7532 111.009 19.4453 110.741 19.0388C110.476 18.6322 110.344 18.1309 110.344 17.5348C110.344 17.0217 110.439 16.5973 110.628 16.2618C110.818 15.9263 111.076 15.6578 111.404 15.4565C111.732 15.2552 112.101 15.1032 112.511 15.0006C112.926 14.894 113.354 14.8171 113.796 14.7697C114.329 14.7144 114.761 14.6651 115.093 14.6217C115.424 14.5743 115.665 14.5032 115.815 14.4085C115.969 14.3098 116.046 14.1579 116.046 13.9526V13.9171C116.046 13.471 115.914 13.1256 115.649 12.8809C115.385 12.6361 115.004 12.5138 114.507 12.5138C113.982 12.5138 113.565 12.6283 113.257 12.8572C112.953 13.0861 112.748 13.3565 112.642 13.6684L110.64 13.3842C110.798 12.8315 111.059 12.3697 111.422 11.9987C111.785 11.6237 112.229 11.3434 112.754 11.1579C113.279 10.9684 113.859 10.8737 114.495 10.8737C114.933 10.8737 115.369 10.925 115.803 11.0276C116.238 11.1302 116.634 11.3 116.994 11.5368C117.353 11.7697 117.641 12.0875 117.858 12.4901C118.079 12.8927 118.19 13.396 118.19 14V20.0868H116.129V18.8374H116.058C115.928 19.0901 115.744 19.3269 115.507 19.548C115.274 19.7651 114.98 19.9407 114.625 20.0749C114.274 20.2052 113.861 20.2703 113.388 20.2703ZM113.944 18.6953C114.374 18.6953 114.748 18.6105 115.063 18.4407C115.379 18.267 115.622 18.0381 115.792 17.7539C115.965 17.4697 116.052 17.1598 116.052 16.8243V15.7526C115.985 15.8078 115.871 15.8592 115.709 15.9065C115.551 15.9539 115.373 15.9953 115.176 16.0309C114.978 16.0664 114.783 16.098 114.59 16.1256C114.396 16.1532 114.228 16.1769 114.086 16.1967C113.767 16.2401 113.48 16.3111 113.228 16.4098C112.975 16.5085 112.776 16.6467 112.63 16.8243C112.484 16.998 112.411 17.223 112.411 17.4993C112.411 17.894 112.555 18.192 112.843 18.3934C113.131 18.5947 113.498 18.6953 113.944 18.6953Z" fill="#006C35"/>
<path d="M119.845 23.4973V10.9921H121.953V12.496H122.077C122.187 12.275 122.343 12.0401 122.545 11.7914C122.746 11.5388 123.018 11.3237 123.362 11.146C123.705 10.9644 124.143 10.8737 124.676 10.8737C125.379 10.8737 126.012 11.0533 126.577 11.4125C127.145 11.7677 127.595 12.2947 127.927 12.9934C128.262 13.6881 128.43 14.5407 128.43 15.5513C128.43 16.5499 128.266 17.3986 127.939 18.0973C127.611 18.796 127.165 19.3289 126.601 19.696C126.036 20.0631 125.397 20.2466 124.682 20.2466C124.161 20.2466 123.729 20.1598 123.385 19.9861C123.042 19.8124 122.766 19.6032 122.556 19.3585C122.351 19.1098 122.191 18.8749 122.077 18.6539H121.988V23.4973H119.845ZM121.947 15.5394C121.947 16.1276 122.029 16.6427 122.195 17.0848C122.365 17.5269 122.608 17.8723 122.924 18.121C123.243 18.3657 123.63 18.4881 124.084 18.4881C124.558 18.4881 124.954 18.3618 125.274 18.1091C125.594 17.8526 125.835 17.5032 125.997 17.0611C126.162 16.6151 126.245 16.1078 126.245 15.5394C126.245 14.975 126.164 14.4736 126.003 14.0355C125.841 13.5973 125.6 13.2539 125.28 13.0052C124.96 12.7565 124.562 12.6322 124.084 12.6322C123.626 12.6322 123.237 12.7526 122.918 12.9934C122.598 13.2342 122.355 13.5717 122.189 14.0059C122.028 14.4401 121.947 14.9513 121.947 15.5394Z" fill="#006C35"/>
<path d="M136.954 13.396L135 13.6092C134.944 13.4118 134.848 13.2263 134.709 13.0526C134.575 12.8789 134.394 12.7388 134.165 12.6322C133.936 12.5256 133.656 12.4723 133.324 12.4723C132.878 12.4723 132.503 12.569 132.199 12.7625C131.899 12.9559 131.751 13.2065 131.755 13.5144C131.751 13.7789 131.848 13.994 132.045 14.1598C132.246 14.3256 132.578 14.4618 133.04 14.5684L134.591 14.9C135.452 15.0855 136.091 15.3796 136.509 15.7822C136.932 16.1848 137.145 16.7118 137.149 17.3631C137.145 17.9355 136.977 18.4407 136.646 18.8789C136.318 19.3131 135.862 19.6526 135.278 19.8973C134.694 20.142 134.023 20.2644 133.265 20.2644C132.152 20.2644 131.256 20.0315 130.577 19.5657C129.898 19.096 129.493 18.4427 129.363 17.6059L131.453 17.4045C131.548 17.8151 131.749 18.1249 132.057 18.3341C132.365 18.5434 132.765 18.648 133.259 18.648C133.768 18.648 134.177 18.5434 134.484 18.3341C134.796 18.1249 134.952 17.8664 134.952 17.5585C134.952 17.298 134.852 17.0828 134.65 16.9131C134.453 16.7434 134.145 16.6131 133.727 16.5223L132.175 16.1967C131.303 16.0151 130.658 15.7092 130.239 15.2789C129.821 14.8447 129.613 14.296 129.617 13.6329C129.613 13.0723 129.765 12.5868 130.073 12.1763C130.385 11.7618 130.817 11.4421 131.37 11.2171C131.927 10.9881 132.568 10.8737 133.294 10.8737C134.36 10.8737 135.199 11.1006 135.811 11.5546C136.427 12.0085 136.808 12.6223 136.954 13.396Z" fill="#006C35"/>
<path fill-rule="evenodd" clip-rule="evenodd" d="M24.5652 11.2914C24.5652 18.6109 15.5688 26.4799 13.8696 27.9007C13.7099 28.0343 13.4801 28.0328 13.3216 27.8977C12.2408 26.9756 8.18382 23.3777 5.38878 19.0382C2.58617 19.9228 0.603423 20.047 0.114771 19.2006C-0.704863 17.781 2.94214 14.0863 8.60557 10.3759C12.7596 11.7386 15.3112 8.70143 17.0828 6.59274C17.6131 5.96154 18.0735 5.41353 18.4861 5.09161C18.6452 4.96745 18.6483 4.65602 18.4643 4.57305C13.0887 2.14917 8.19492 3.74599 7.66724 8.16281C7.64562 8.34371 7.84592 8.45943 7.99949 8.36141C10.0657 7.0426 12.4369 6.06958 14.2247 5.61064C14.4772 5.54583 14.5352 5.79895 14.2926 5.89421C12.601 6.5583 10.9071 7.47127 9.39029 8.41485C9.38179 8.41464 9.37319 8.41669 9.36554 8.42124C6.72987 9.98916 4.47472 11.6176 2.80613 13.112C2.68796 12.5019 2.624 11.8936 2.624 11.2914C2.624 5.05534 7.53571 0 13.5946 0C16.8596 0 19.7914 1.46796 21.8011 3.79761C24.6034 2.91323 26.5859 2.78909 27.0745 3.63541C27.7311 4.77261 25.5215 7.36969 21.7052 10.2652C20.7872 10.9918 19.6977 11.7621 18.4779 12.5406C14.3861 11.2631 11.8627 14.2667 10.1061 16.3575C9.57581 16.9887 9.1154 17.5367 8.70283 17.8586C8.5437 17.9828 8.54059 18.2942 8.72459 18.3772C14.1002 20.801 18.994 19.2042 19.5217 14.7874C19.5433 14.6065 19.343 14.4908 19.1895 14.5888C17.1232 15.9076 14.752 16.8806 12.9642 17.3396C12.7117 17.4044 12.6537 17.1513 12.8964 17.056C14.5902 16.391 16.2862 15.4765 17.8046 14.5316C17.8112 14.531 17.8177 14.529 17.8236 14.5255C20.5028 12.9316 22.7889 11.2752 24.4653 9.7607C24.5312 10.2613 24.5652 10.7723 24.5652 11.2914ZM23.7209 6.93983C24.6055 6.03138 25.0124 5.32764 24.7951 4.95118C24.5826 4.58312 23.8008 4.57541 22.6174 4.86669C23.0521 5.51207 23.423 6.20633 23.7209 6.93983ZM3.6225 15.7402C2.63174 16.7237 2.16476 17.4866 2.39435 17.8842C2.6153 18.2669 3.4517 18.2601 4.71503 17.9326C4.30277 17.2142 3.93265 16.4806 3.6225 15.7402Z" fill="#006C35"/>
</svg>
