<svg width="145" height="145" viewBox="0 0 145 145" fill="none" xmlns="http://www.w3.org/2000/svg">
<rect width="144.078" height="144.078" rx="72.0391" fill="white" fill-opacity="0.7"/>
<rect x="12.0391" y="12.0391" width="120" height="120" rx="60" fill="#006C35"/>
<path fill-rule="evenodd" clip-rule="evenodd" d="M102.098 64.6691C102.098 84.4107 78.2115 105.611 73.0263 109.981C72.4454 110.47 71.6398 110.466 71.0637 109.971C67.7955 107.162 57.0307 97.495 49.5582 85.8934C41.879 88.3172 36.4463 88.6576 35.1074 86.3386C32.8618 82.4491 42.8537 72.3264 58.3703 62.1608C69.752 65.895 76.7432 57.5735 81.5971 51.796C82.8826 50.2659 84.0182 48.9143 85.0457 48.0122C85.599 47.5265 85.5815 46.3457 84.9065 46.0516C70.5303 39.7881 57.5266 44.0289 55.8531 55.696C55.7587 56.3538 56.4869 56.7806 57.0497 56.4271C62.0414 53.2924 67.6381 50.893 72.1995 49.5396C73.111 49.2692 73.3229 50.1257 72.4474 50.4964C68.3087 52.2484 64.2076 54.4935 60.4948 56.8046C60.4672 56.8055 60.4396 56.8131 60.4148 56.8278C53.2105 61.1163 47.0459 65.569 42.4823 69.6559C42.1587 67.9848 41.9835 66.3185 41.9835 64.6691C41.9835 47.5835 55.4406 33.7329 72.0408 33.7329C80.9859 33.7329 89.0184 37.7547 94.5244 44.1372C102.202 41.7144 107.633 41.3744 108.972 43.6931C110.769 46.8059 104.728 53.9111 94.2898 61.8356C91.7688 63.8327 88.7742 65.9508 85.4196 68.0916C74.2093 64.5925 67.2959 72.8213 62.4834 78.5495C61.198 80.0795 60.0624 81.4312 59.0349 82.3332C58.4816 82.819 58.499 83.9998 59.174 84.2938C73.5503 90.5574 86.554 86.3166 88.2275 74.6495C88.3219 73.9916 87.5937 73.5649 87.0309 73.9183C82.0392 77.0531 76.4424 79.4525 71.881 80.8058C70.9695 81.0763 70.7576 80.2197 71.6332 79.8491C75.7789 78.094 79.887 75.8443 83.6048 73.529C83.625 73.5257 83.6447 73.5188 83.6629 73.5079C90.9882 69.1475 97.2386 64.6172 101.824 60.4744C102.005 61.8461 102.098 63.2464 102.098 64.6691ZM99.7845 52.7458C102.207 50.2573 103.322 48.3295 102.727 47.2982C102.144 46.2899 100.003 46.2687 96.7614 47.0664C97.9521 48.8345 98.9683 50.7364 99.7845 52.7458ZM44.7189 76.8569C42.0037 79.5521 40.7239 81.6426 41.3531 82.7322C41.9585 83.7808 44.2505 83.7618 47.7124 82.8643C46.5828 80.8958 45.5686 78.8859 44.7189 76.8569Z" fill="white"/>
</svg>
