<svg width="40" height="40" viewBox="0 0 40 40" fill="none" xmlns="http://www.w3.org/2000/svg">
<rect width="40" height="40" rx="20" transform="matrix(-1 0 0 1 40 0)" fill="black"/>
<path d="M20.0312 12.719C20.1009 12.7886 20.1563 12.8713 20.194 12.9624C20.2318 13.0534 20.2512 13.151 20.2512 13.2496C20.2512 13.3481 20.2318 13.4457 20.194 13.5368C20.1563 13.6278 20.1009 13.7106 20.0312 13.7802L14.5609 19.2496H27.2506C27.4495 19.2496 27.6403 19.3286 27.7809 19.4693C27.9216 19.6099 28.0006 19.8007 28.0006 19.9996C28.0006 20.1985 27.9216 20.3893 27.7809 20.5299C27.6403 20.6706 27.4495 20.7496 27.2506 20.7496H14.5609L20.0312 26.219C20.1719 26.3597 20.251 26.5506 20.251 26.7496C20.251 26.9486 20.1719 27.1395 20.0312 27.2802C19.8905 27.4209 19.6996 27.5 19.5006 27.5C19.3016 27.5 19.1107 27.4209 18.97 27.2802L12.22 20.5302C12.1502 20.4606 12.0949 20.3778 12.0572 20.2868C12.0194 20.1957 12 20.0981 12 19.9996C12 19.901 12.0194 19.8034 12.0572 19.7124C12.0949 19.6213 12.1502 19.5386 12.22 19.469L18.97 12.719C19.0396 12.6492 19.1223 12.5939 19.2134 12.5562C19.3044 12.5184 19.402 12.499 19.5006 12.499C19.5992 12.499 19.6967 12.5184 19.7878 12.5562C19.8788 12.5939 19.9616 12.6492 20.0312 12.719Z" fill="white"/>
</svg>
