<svg width="40" height="40" viewBox="0 0 40 40" fill="none" xmlns="http://www.w3.org/2000/svg">
<rect width="40" height="40" rx="20" fill="black"/>
<path d="M19.9688 12.719C19.8991 12.7886 19.8437 12.8713 19.806 12.9624C19.7682 13.0534 19.7488 13.151 19.7488 13.2496C19.7488 13.3481 19.7682 13.4457 19.806 13.5368C19.8437 13.6278 19.8991 13.7106 19.9688 13.7802L25.4391 19.2496H12.7494C12.5505 19.2496 12.3597 19.3286 12.2191 19.4693C12.0784 19.6099 11.9994 19.8007 11.9994 19.9996C11.9994 20.1985 12.0784 20.3893 12.2191 20.5299C12.3597 20.6706 12.5505 20.7496 12.7494 20.7496H25.4391L19.9688 26.219C19.8281 26.3597 19.749 26.5506 19.749 26.7496C19.749 26.9486 19.8281 27.1395 19.9688 27.2802C20.1095 27.4209 20.3004 27.5 20.4994 27.5C20.6984 27.5 20.8893 27.4209 21.03 27.2802L27.78 20.5302C27.8498 20.4606 27.9051 20.3778 27.9428 20.2868C27.9806 20.1957 28 20.0981 28 19.9996C28 19.901 27.9806 19.8034 27.9428 19.7124C27.9051 19.6213 27.8498 19.5386 27.78 19.469L21.03 12.719C20.9604 12.6492 20.8777 12.5939 20.7866 12.5562C20.6956 12.5184 20.598 12.499 20.4994 12.499C20.4008 12.499 20.3033 12.5184 20.2122 12.5562C20.1212 12.5939 20.0384 12.6492 19.9688 12.719Z" fill="white"/>
</svg>
