<svg width="21" height="20" viewBox="0 0 21 20" fill="none" xmlns="http://www.w3.org/2000/svg">
<path fill-rule="evenodd" clip-rule="evenodd" d="M10.5 19.5999C15.802 19.5999 20.1 15.3018 20.1 9.9999C20.1 4.69797 15.802 0.399902 10.5 0.399902C5.19809 0.399902 0.900024 4.69797 0.900024 9.9999C0.900024 15.3018 5.19809 19.5999 10.5 19.5999ZM3.69817 7.63279C4.14653 6.34423 4.95072 5.22227 5.99307 4.38457C6.31454 4.87549 6.86942 5.19979 7.50004 5.19979C8.49415 5.19979 9.30004 6.00568 9.30004 6.99979V7.59979C9.30004 8.92528 10.3746 9.99979 11.7 9.99979C13.0255 9.99979 14.1 8.92528 14.1 7.59979C14.1 6.47165 14.8784 5.52531 15.9274 5.26853C17.0314 6.53383 17.7 8.18873 17.7 9.99981C17.7 10.4087 17.666 10.8097 17.6005 11.2H16.5C15.1745 11.2 14.1 12.2745 14.1 13.6V16.2366C13.041 16.8492 11.8113 17.1998 10.4999 17.1998V14.7999C10.4999 13.4744 9.42541 12.3999 8.09992 12.3999C6.77444 12.3999 5.69992 11.3254 5.69992 9.9999C5.69992 8.81009 4.83412 7.8225 3.69817 7.63279Z" fill="white"/>
</svg>
